<svg id="Layer_1" data-name="Layer 1" xmlns="http://www.w3.org/2000/svg" xmlns:xlink="http://www.w3.org/1999/xlink" viewBox="0 0 431.09 335.27"><defs><style>.cls-1,.cls-4{font-size:125px;}.cls-1,.cls-3,.cls-7{font-family:Charter-Bold, Charter;font-weight:700;}.cls-2{stroke:#231f20;stroke-linejoin:round;stroke-width:1.34px;}.cls-2,.cls-6{fill-rule:evenodd;}.cls-3,.cls-7{font-size:229.04px;}.cls-3,.cls-6{fill:#fff;}.cls-4{fill:#000;}.cls-5{clip-path:url(#clip-path);}</style><clipPath id="clip-path" transform="translate(-234.16 -396.35)"><text class="cls-1" transform="translate(422.71 502.46) scale(0.93 1)">w/</text></clipPath></defs><title>awswithmotto</title><path class="cls-2" d="M388,397c-.88.53-1.51.82-2.54,1.43-65.92,38.28-142.73,112.81-150.33,205.42-3.61,44.06,27.68,74.45,68,75,25.75.34,46.42-8,57.59-23.8,9.28-13.15,11.59-33.38,13.13-24,5.55,35.63-10.88,70-19.73,99.92,10-3.31,22.5-5,35.06-5.07h.21c12.54,0,25.06,1.6,35,4.84-9-29.91-25.65-64.12-20.34-99.79,1.48-9.35,3.91,10.87,13.26,24,11.26,15.74,32,23.93,57.74,23.42,40.33-.8,71.43-31.39,67.53-75.42-8.2-92.57-85.49-166.59-151.61-204.45-.71-.48-1.35-.78-2.39-1.41Z" transform="translate(-234.16 -396.35)"/><text class="cls-3" transform="translate(93.71 202.47) scale(0.93 1)">A<tspan class="cls-4" x="149.08" y="0" xml:space="preserve">   </tspan></text><g class="cls-5"><path class="cls-6" d="M442,434a285.73,285.73,0,0,1,63,68l-81-2-1.29-65.69L442,434" transform="translate(-234.16 -396.35)"/></g><text class="cls-7" transform="translate(309.8 202.75) scale(0.93 1)">S</text></svg>