<svg id="Layer_1" data-name="Layer 1" xmlns="http://www.w3.org/2000/svg" viewBox="0 0 446.07 59.25"><defs><style>.cls-1{fill:#231f20;}.cls-2{fill:#e54145;}.cls-3{fill:#ed2224;}</style></defs><title>signature</title><path class="cls-1" d="M.07,34.73C-.1,34,0,33.45.92,33.54c4.59.25,10.88-.68,14.79-.68,4.25,0,5.87,2,6.38,4.42.17.76,0,1.27-.94,1.19-6.2-.51-11,.93-14.87.76S.58,37.28.07,34.73Z"/><path class="cls-1" d="M29,20.87c-.85-1.19-.34-1.78.94-1.7A47,47,0,0,0,37,18.83,112,112,0,0,1,43.42,8.29c.77-1.11,1.62-1,2,0,.94,2.38.94,5.18-1.1,9.61,3.31-.09,4.59,1.44,5.27,2.55s.25,1.61-1,1.61A25.57,25.57,0,0,0,42,22.4c-3.32,5.7-8.16,13.94-11.39,21.08-2.81,6.21-1.88,11.48,1.7,11.65,3.82.17,8.67-5.87,11.81-12.24.51-1,1.45-1.19,1.79,0,.42,1.36,0,2.89-.85,4.84-1.11,2.47-6.72,10-13.52,9.69-5.61-.17-10.12-6.46-6-16.23,1.79-4.25,5.36-11.39,9-18.11A7,7,0,0,1,29,20.87Z"/><path class="cls-1" d="M63.4,57.51c-7.14,0-8.93-5.19-6.38-12.58,2.81-8.25,10.2-17.09,8.84-17.85-1.19-.68-10.45,5.1-15.39,13.17A111.83,111.83,0,0,0,42.23,56.4c-.34.77-.94.94-1.45.34-1.36-1.53-2.12-3.91-.34-9,3-8.5,20.66-38.42,27.55-47,.76-1,1.61-.93,2,.09,1.1,2.46.85,6.71-2.38,12.07-2,3.4-6.55,10.29-10.2,16,3.48-3.4,7.9-6.2,10.2-5.95,2.89.34,5.52,4.59,3.31,8.93-1.87,3.74-5.95,9.94-7.9,14.36-2.13,4.93-1.7,8.93,1.44,8.76,3.49-.17,8.16-6.29,10.8-11.73a.81.81,0,0,1,1.53-.09c.42.94.42,2.72-.85,5.27C73.6,53.26,68.41,57.51,63.4,57.51Z"/><path class="cls-1" d="M85.75,55C92.81,55.38,99,48.58,102.67,43c.42-.68,1.1-.68,1.44.09s.09,3.06-1.44,5.27C99.1,53.51,92.55,57.42,86,57.51c-10.79.17-14.53-10.46-9-21.42S91.19,20.7,95.44,23.17a15.72,15.72,0,0,1,5,4.42c1.53,2,.85,7.22-2.72,11.56-4.17,5.1-9.86,7.31-15.82,2.46C79.2,49.43,81.24,54.79,85.75,55Zm7.06-19.55c2.72-3.57,4.59-8,3.4-8.92-1.79-1.45-8.84,3.65-12.84,11.73-.26.51-.51,1-.68,1.44C86.86,42.38,90.34,38.72,92.81,35.49Z"/><path class="cls-1" d="M129.69,44.16a135.12,135.12,0,0,0-6.46,12.24.83.83,0,0,1-1.53.17c-1-1.36-1.36-3.91.43-8.67a46.26,46.26,0,0,1,2.29-4.84,6,6,0,0,1-2.8-2.89c-.43-1.11-.26-1.45,1-1.28s2.46.34,3.82.43c6.63-11.56,18.45-28.4,27.46-35.79,1.36-1.11,2.21-1.11,3.06.08a11.42,11.42,0,0,1,2,3.49,8.25,8.25,0,0,1,0,6.2A176.79,176.79,0,0,0,152.73,38a5.28,5.28,0,0,1,3.82,4.34c.18.76-.17,1-.93.76a20.8,20.8,0,0,0-3.66-.51c-.59,4.42-1.1,9.1-1.27,13.6,0,.85-.51,1.11-1.28.77-1.7-.77-3.06-2.89-3.14-7.74a64.28,64.28,0,0,1,.34-6.46C140.57,43.23,133.69,44.25,129.69,44.16Zm17.6-6.54c1.27-8.84,3.65-19.55,6.29-26.19a229.79,229.79,0,0,0-20.66,27.63C138.11,38.64,143.29,37.7,147.29,37.62Z"/><path class="cls-1" d="M200.92,22.4c1.11-.17,1.62,1.11,1.28,2.89-.68,3.4-2.13,7.23-7.4,16.15C189,51.13,183,57.68,177.29,57.51c-3.65-.09-5.69-3.4-5.44-7.06-2.72,3.49-6.29,6.89-10.37,6.63-5.27-.34-6.2-5.86-4-12.15A89,89,0,0,1,169.3,23.25c.68-.93,1.53-.85,2-.08,2,2.8,1.62,6.46-1.53,11.47a86.17,86.17,0,0,0-7,12.92c-1.7,4.17-1.61,7.14.34,7.06,3.4-.09,6.55-5.78,11.14-13.18,5.44-8.67,7.9-14.53,10.71-18.19.85-1.1,1.36-1.27,2.12-.51,1.19,1.53,1.87,5.27-.17,9.52-1.87,3.83-6.12,10.29-8.24,14.79-2.3,4.85-2,7.74.42,7.82,3,.09,8.08-5.52,12.67-13.51C193.27,28.35,199.14,22.74,200.92,22.4Z"/><path class="cls-1" d="M240.28,1.83c.51,2.46-.6,6.29-5.19,11.64-6.71,7.83-30.85,32.22-39.35,45.23-.43.68-1.19.85-1.62-.17-.68-1.79-.42-4.42,1.45-7.91,5.1-9.52,32.89-39.87,42.67-49.3C239.26.38,240,.55,240.28,1.83Z"/><path class="cls-1" d="M231,46.54c3.4,2.72,9.18,7.14,14.71,7.14A8.09,8.09,0,0,0,251,52.15a3,3,0,0,0-.17-4.42c-4.51-3.82-17.94-9.09-17.94-17.85,0-11.64,13.18-21.59,20.74-24.82,4.08-1.7,8.16-2.38,11,.17a15.35,15.35,0,0,1,4.25,7.14c.85,3.4-1.19,6.72-2.47,8.5a97.74,97.74,0,0,0-5.86,9.44c-.43.76-.94,1.19-1.87.25C257,29,256,26.31,257.79,22.32S266,11.18,263.91,9.05c-2.89-3-23.8,10-24.23,20.66-.25,5.53,10.63,10,15.39,13.43,3.23,2.3,2.8,6.21-.94,10.54-5.1,5.87-19.89,7.48-31.88-7-.93-1.1-.59-1.7.17-2A9.79,9.79,0,0,1,231,46.54Z"/><path class="cls-1" d="M299.94,12.11c-5.1.17-8.75-1.7-9.69-4.84-.25-.77.09-1.19.94-1.11,7.56.6,21.67-2.55,26.52-2.38,3.57.09,6.8,1,8.08,4.34.25.68.08,1.36-1,1.27-4.17-.42-9.52.43-14.46,1.28.09,2-.51,4.84-2.8,9-5.1,9.27-12.33,21.17-19,36.72-.34.85-.76.85-1.36.26C286,55.55,285,53,286.09,48.92c2-7,11.13-25.41,19-37.4A43.21,43.21,0,0,1,299.94,12.11Z"/><path class="cls-1" d="M314.73,55c7.06.34,13.27-6.46,16.92-12.07.43-.68,1.1-.68,1.45.09s.08,3.06-1.45,5.27c-3.57,5.18-10.12,9.09-16.66,9.18-10.8.17-14.54-10.46-9-21.42s14.19-15.39,18.44-12.92a15.72,15.72,0,0,1,5,4.42c1.53,2,.85,7.22-2.72,11.56-4.17,5.1-9.86,7.31-15.81,2.46C308.19,49.43,310.23,54.79,314.73,55Zm7.06-19.55c2.72-3.57,4.59-8,3.4-8.92-1.79-1.45-8.84,3.65-12.84,11.73-.25.51-.51,1-.68,1.44C315.84,42.38,319.32,38.72,321.79,35.49Z"/><path class="cls-1" d="M360.89,23.34c.76-1.11,1.45-1.28,2-.51,1.28,1.53,1.95,5.18-.09,9.43-1.87,3.83-6.12,10.2-8.16,14.71-2.12,4.76-2.21,8.41.68,8.24,3.49-.17,8.16-6,11.14-11.81.42-.77,1-.85,1.36-.09s.34,2.89-.77,5.27c-2.21,4.68-7.56,9.35-12.24,9.1s-7-3-7-7c-2.72,3.48-6.54,6.63-10.62,6.63-7.91,0-9.52-10.8-2.47-21.08,6.89-10,13.6-13.86,17.85-13.86,3.66,0,5.36,2.81,5.19,6.12A57.62,57.62,0,0,1,360.89,23.34Zm-6.8,3.48c-2.72-.25-8.93,5.27-13.6,12.84-4.51,7.31-5.61,14.79-2.3,14.87,3.49.09,7.91-5.35,12.24-12.83C355.79,32.35,356.55,27.08,354.09,26.82Z"/><path class="cls-1" d="M391.49,22.74c2.89.09,4.42,4.59,3.31,8.33,4.08-4,9.78-8,12.58-7.9,3.07.08,3.75,5.1,2.05,9.35-1.53,3.82-5.7,9.43-7.83,13.68-2.38,4.85-1.18,8.76,1.87,8.67,3.49-.08,7.32-5.69,10.63-11.64.43-.77,1.11-.77,1.53-.17s.17,3.4-.76,5.35c-2.38,4.85-7.82,9.1-12.75,9.1-7.4,0-10.12-5.87-7-12.84s10.72-16.57,9.44-17c-.68-.25-3.57.68-9.1,6.21-7.05,7-11.22,15.21-14.79,23.2-.51,1-1.19,1.28-1.95.43-1.45-1.28-2.64-4.59-.17-10.71,2.8-7.06,12-18.79,10.28-19.38-1-.43-5.18,1.87-10.62,7.82-5,5.44-9.1,13.34-12.5,21.33-.34.77-.85,1.11-1.61.43-1.87-1.62-2.3-4.42-.85-8.76,1.78-5.35,8-17.34,13.34-25.33.6-.93,1.28-.85,1.79,0,1.44,2.38,1.19,5.7-.09,9.1C382.05,27.67,388.43,22.66,391.49,22.74Z"/><path class="cls-2" d="M420.18,35.94a.22.22,0,0,0,0-.08l-.06,0Z"/><path class="cls-3" d="M443.33,7.43c-2-1.89-6.35-2.38-10.3,2.34-.26.24-.37.18-.34-.17.68-6.4-2-9.15-4.57-9.53-3.88-.54-8.54,2.14-10.76,7.37-4.25,9,1.55,17.3,2.81,28.42,9.52-5.91,19.75-6.48,24.11-15.43C447.24,15.5,446.26,10.16,443.33,7.43Z"/></svg>