<svg id="Layer_1" data-name="Layer 1" xmlns="http://www.w3.org/2000/svg" viewBox="0 0 57 68.43"><defs><style>.cls-1{fill:#010101;}</style></defs><title>clubs</title><path class="cls-1" d="M28.71,0C21.21,0,15.1,6.78,15.05,15.22a16.16,16.16,0,0,0,5,12c1,1,.59,2-.47,1.35a12.4,12.4,0,0,0-6.45-2C5.94,26.53,0,33.1,0,41.24S5.79,56,13,56.06a12.9,12.9,0,0,0,11.34-7.25c.22-.43.4-1,.72-1s.62.7.62,2c0,5.29-2.09,11.45-5.13,18.53a42.83,42.83,0,0,1,7.79-1,43.24,43.24,0,0,1,7.78,1.13c-3-7.11-4.95-13.29-4.93-18.58,0-1.32.21-2,.64-2s.49.59.71,1a12.87,12.87,0,0,0,11.27,7.36C51.05,56.25,57,49.67,57,41.53S51.2,26.76,44,26.72a12.38,12.38,0,0,0-6.48,1.89c-1.06.64-1.5-.4-.46-1.35a16.17,16.17,0,0,0,5.17-11.9C42.25,6.92,36.2,0,28.71,0Z"/></svg>