<svg id="Layer_1" data-name="Layer 1" xmlns="http://www.w3.org/2000/svg" viewBox="0 0 53.25 63.89"><defs><style>.cls-1{fill:#231f20;stroke:#231f20;stroke-linejoin:round;stroke-width:0.24px;fill-rule:evenodd;}</style></defs><title>spades</title><path class="cls-1" d="M26.35.12,25.92.4C14.6,7.72,1.42,22,.17,39.6-.43,48,5,53.78,11.91,53.86c4.43.06,8-1.54,9.89-4.55,1.59-2.51,2-6.37,2.25-4.59,1,6.79-1.83,13.33-3.34,19.05a18.28,18.28,0,0,1,6-1h0a18.14,18.14,0,0,1,6,.91c-1.57-5.7-4.45-12.21-3.56-19,.25-1.78.68,2.07,2.3,4.56,1.94,3,5.51,4.55,9.94,4.44,6.94-.17,12.28-6,11.58-14.4C51.61,21.66,38.27,7.58,26.88.39L26.46.12Z"/></svg>